<svg xmlns="http://www.w3.org/2000/svg" width="1200" height="720" viewBox="0 0 1200 720" fill="none">
  <rect width="1200" height="720" rx="32" fill="#F7F8FF"/>
  <rect x="48" y="40" width="1104" height="88" rx="24" fill="#FFFFFF" stroke="#E3E8FF"/>
  <rect x="72" y="64" width="180" height="40" rx="20" fill="#EEF2FF"/>
  <rect x="296" y="60" width="608" height="16" rx="8" fill="#D9E2FF"/>
  <rect x="296" y="84" width="420" height="12" rx="6" fill="#E8ECFF"/>
  <rect x="972" y="60" width="48" height="48" rx="14" fill="#EEF2FF"/>
  <rect x="1036" y="60" width="48" height="48" rx="14" fill="#EEF2FF"/>
  <rect x="1100" y="60" width="24" height="48" rx="12" fill="#EEF2FF"/>
  <rect x="48" y="156" width="1104" height="92" rx="28" fill="#FFFFFF" stroke="#E3E8FF"/>
  <rect x="72" y="184" width="92" height="16" rx="8" fill="#B7C5FF"/>
  <rect x="180" y="176" width="152" height="32" rx="16" fill="#EEF2FF"/>
  <rect x="344" y="176" width="152" height="32" rx="16" fill="#EEF2FF"/>
  <rect x="508" y="176" width="152" height="32" rx="16" fill="#EEF2FF"/>
  <rect x="72" y="302" width="1056" height="104" rx="28" fill="#FFFFFF" stroke="#E3E8FF"/>
  <rect x="72" y="438" width="338" height="214" rx="28" fill="#FFFFFF" stroke="#E3E8FF"/>
  <rect x="431" y="438" width="338" height="214" rx="28" fill="#FFFFFF" stroke="#E3E8FF"/>
  <rect x="790" y="438" width="338" height="214" rx="28" fill="#FFFFFF" stroke="#E3E8FF"/>
  <rect x="96" y="470" width="180" height="18" rx="9" fill="#CFD8FF"/>
  <rect x="96" y="502" width="250" height="14" rx="7" fill="#E6EBFF"/>
  <rect x="96" y="530" width="230" height="14" rx="7" fill="#E6EBFF"/>
  <rect x="96" y="564" width="258" height="52" rx="16" fill="#F3F6FF" stroke="#D9E2FF"/>
  <rect x="455" y="470" width="180" height="18" rx="9" fill="#CFD8FF"/>
  <rect x="455" y="502" width="250" height="14" rx="7" fill="#E6EBFF"/>
  <rect x="455" y="530" width="230" height="14" rx="7" fill="#E6EBFF"/>
  <rect x="455" y="564" width="258" height="52" rx="16" fill="#F3F6FF" stroke="#D9E2FF"/>
  <rect x="814" y="470" width="180" height="18" rx="9" fill="#CFD8FF"/>
  <rect x="814" y="502" width="250" height="14" rx="7" fill="#E6EBFF"/>
  <rect x="814" y="530" width="230" height="14" rx="7" fill="#E6EBFF"/>
  <rect x="814" y="564" width="258" height="52" rx="16" fill="#F3F6FF" stroke="#D9E2FF"/>
  <text x="600" y="690" text-anchor="middle" fill="#6E7FD8" font-family="Inter, Arial, sans-serif" font-size="22">Main page screenshot placeholder</text>
</svg>
