<svg xmlns="http://www.w3.org/2000/svg" width="1200" height="720" viewBox="0 0 1200 720" fill="none">
  <rect width="1200" height="720" rx="32" fill="#F7F8FF"/>
  <rect x="48" y="40" width="1104" height="88" rx="24" fill="#FFFFFF" stroke="#E3E8FF"/>
  <rect x="72" y="64" width="180" height="40" rx="20" fill="#EEF2FF"/>
  <rect x="316" y="182" width="568" height="28" rx="14" fill="#CFD8FF"/>
  <rect x="424" y="224" width="352" height="16" rx="8" fill="#E4E9FF"/>
  <rect x="96" y="286" width="1008" height="86" rx="24" fill="#FFFFFF" stroke="#E3E8FF"/>
  <rect x="96" y="416" width="1008" height="118" rx="24" fill="#FFFFFF" stroke="#E3E8FF"/>
  <rect x="128" y="452" width="128" height="34" rx="17" fill="#EEF2FF"/>
  <rect x="272" y="452" width="158" height="34" rx="17" fill="#EEF2FF"/>
  <rect x="446" y="452" width="186" height="34" rx="17" fill="#EEF2FF"/>
  <rect x="648" y="452" width="136" height="34" rx="17" fill="#EEF2FF"/>
  <rect x="96" y="566" width="324" height="106" rx="24" fill="#FFFFFF" stroke="#E3E8FF"/>
  <rect x="438" y="566" width="324" height="106" rx="24" fill="#FFFFFF" stroke="#E3E8FF"/>
  <rect x="780" y="566" width="324" height="106" rx="24" fill="#FFFFFF" stroke="#E3E8FF"/>
  <text x="600" y="690" text-anchor="middle" fill="#6E7FD8" font-family="Inter, Arial, sans-serif" font-size="22">Statistics page screenshot placeholder</text>
</svg>
